<?xml version="1.0" encoding="iso-8859-1"?>
<!-- Generator: Adobe Illustrator 16.0.0, SVG Export Plug-In . SVG Version: 6.00 Build 0)  -->
<!DOCTYPE svg PUBLIC "-//W3C//DTD SVG 1.1//EN" "http://www.w3.org/Graphics/SVG/1.1/DTD/svg11.dtd">
<svg version="1.1" id="Capa_1" xmlns="http://www.w3.org/2000/svg" xmlns:xlink="http://www.w3.org/1999/xlink" x="0px" y="0px"
	 width="57.65px" height="57.65px" viewBox="0 0 57.65 57.65" style="enable-background:new 0 0 57.65 57.65;" xml:space="preserve"
	>
<g>
	<g>
		<path d="M12.361,30.919h1.744c0.476,0,0.886,0.335,0.98,0.802c0.245,1.213,0.664,2.418,1.246,3.58
			c0.272,0.541,0.537,1.008,0.81,1.424c0.259,0.396,0.205,0.918-0.129,1.254l-1.183,1.184c-0.161,0.16-0.175,0.355-0.168,0.458
			c-0.001,0.199,0.025,0.369,0.168,0.513l2.027,2.026c0.227,0.228,0.618,0.228,0.844,0l1.231-1.229
			c0.193-0.193,0.449-0.293,0.708-0.293c0.191,0,0.384,0.055,0.553,0.166c1.539,1.023,3.247,1.729,5.075,2.098
			c0.467,0.094,0.803,0.504,0.803,0.98v1.744c0,0.33,0.268,0.598,0.597,0.598h2.868c0.329,0,0.598-0.268,0.598-0.598v-1.736
			c0-0.477,0.336-0.887,0.803-0.979c1.813-0.364,3.521-1.073,5.074-2.106c0.397-0.264,0.926-0.211,1.262,0.125l1.229,1.229
			c0.226,0.228,0.618,0.228,0.843,0.001l2.029-2.027c0.15-0.15,0.168-0.334,0.167-0.431c0.007-0.185-0.007-0.38-0.168-0.542
			l-1.182-1.182c-0.335-0.334-0.39-0.858-0.13-1.254c0.272-0.416,0.539-0.883,0.813-1.426c0.586-1.166,1.007-2.369,1.25-3.576
			c0.095-0.467,0.505-0.803,0.979-0.803h1.736c0.16,0,0.311-0.062,0.424-0.175c0.112-0.112,0.174-0.262,0.174-0.421v-2.993
			c0-0.16-0.062-0.31-0.174-0.422C46.15,26.794,46,26.732,45.84,26.732h-1.736c-0.477,0-0.887-0.336-0.979-0.803
			c-0.241-1.207-0.663-2.41-1.25-3.576c-0.274-0.543-0.54-1.01-0.812-1.426c-0.26-0.396-0.207-0.92,0.129-1.255l1.183-1.183
			c0.16-0.16,0.175-0.356,0.167-0.459c0.001-0.198-0.025-0.368-0.167-0.511l-2.028-2.027c-0.226-0.226-0.619-0.226-0.842,0
			l-1.232,1.23c-0.336,0.336-0.863,0.389-1.26,0.125c-1.555-1.034-3.262-1.742-5.076-2.105c-0.467-0.093-0.803-0.504-0.803-0.98
			v-1.737c0-0.329-0.269-0.597-0.598-0.597h-2.87c-0.329,0-0.597,0.268-0.597,0.597v1.745c0,0.476-0.335,0.886-0.802,0.98
			c-1.831,0.37-3.539,1.076-5.076,2.098c-0.396,0.264-0.924,0.212-1.261-0.125l-1.23-1.23c-0.226-0.225-0.619-0.226-0.844,0
			l-2.028,2.027c-0.143,0.143-0.169,0.313-0.167,0.431c-0.007,0.184,0.007,0.379,0.166,0.538l1.185,1.185
			c0.334,0.335,0.388,0.858,0.129,1.254c-0.273,0.417-0.538,0.884-0.81,1.426c-0.581,1.16-1,2.364-1.245,3.578
			c-0.094,0.467-0.504,0.802-0.98,0.802h-1.744c-0.159,0-0.309,0.062-0.422,0.175c-0.113,0.113-0.175,0.263-0.175,0.422v2.993
			c0,0.16,0.062,0.311,0.175,0.423C12.052,30.857,12.201,30.919,12.361,30.919z M23.947,17.853c0.098-0.114,0.222-0.207,0.366-0.269
			c3.067-1.318,6.425-1.329,9.5-0.033c0.145,0.061,0.269,0.152,0.367,0.265c4.299,1.973,7.07,6.249,7.098,11.003
			c-0.027,4.765-2.799,9.041-7.098,11.013c-0.099,0.113-0.223,0.205-0.367,0.266c-1.523,0.643-3.109,0.968-4.713,0.968
			c-1.631,0-3.241-0.337-4.787-1.001c-0.143-0.062-0.267-0.154-0.364-0.268c-4.256-1.988-7-6.25-7.027-10.967
			C16.949,24.102,19.692,19.84,23.947,17.853z"/>
		<path d="M29.727,29.779c0,0.271,0.064,1.203,0.146,2.052c0.2-0.239,0.369-0.457,0.441-0.565c0.062-0.121,0.832-1.256,2.262-3.331
			c0.146-0.214,0.373-0.362,0.628-0.413l1.833-0.365c0.096-0.096,0.184-0.191,0.249-0.265c0.146-0.561,0.733-1.193,1.522-2.042
			c0.117-0.127,0.267-0.221,0.433-0.273l0.433-0.136c-0.73-1.521-1.869-2.835-3.271-3.779l-0.039,0.142
			c-0.099,0.361-0.392,0.638-0.759,0.715l-2.447,0.518c0.451,2.956-0.378,3.324-0.752,3.489c-0.283,0.125-1.223,0.862-1.972,1.51
			l-0.455,0.729C29.727,28.934,29.727,29.434,29.727,29.779z"/>
		<path d="M22.055,26.148c0.426-1.258,0.729-2.008,0.951-2.467c-0.167-0.146-0.382-0.316-0.592-0.47
			c-0.035-0.025-0.069-0.054-0.104-0.078c-0.045-0.032-0.087-0.067-0.126-0.106l-0.412-0.408c-1.34,1.674-2.07,3.737-2.07,5.887
			c0,0.69,0.076,1.375,0.227,2.046l0.132-0.123c0.176-0.879,0.342-1.855,0.354-2.168C20.264,27.583,20.731,26.98,22.055,26.148z"/>
		<path d="M28.825,57.65c15.92,0,28.825-12.905,28.825-28.825S44.745,0,28.825,0S0,12.905,0,28.825S12.905,57.65,28.825,57.65z
			 M9.764,27.329c0-0.693,0.27-1.346,0.76-1.836c0.49-0.491,1.143-0.761,1.836-0.761h0.948c0.287-1.113,0.7-2.212,1.233-3.277
			c0.166-0.331,0.331-0.638,0.497-0.927l-0.626-0.626c-0.519-0.517-0.793-1.242-0.75-1.987c-0.018-0.636,0.249-1.307,0.75-1.81
			l2.028-2.028c0.979-0.981,2.69-0.981,3.672,0l0.667,0.667c1.334-0.793,2.771-1.387,4.289-1.772v-0.947
			c0-1.432,1.165-2.597,2.597-2.597h2.868c1.432,0,2.598,1.165,2.598,2.597v0.939c1.508,0.382,2.944,0.979,4.289,1.78l0.666-0.666
			c0.979-0.98,2.69-0.982,3.672,0l2.027,2.027c0.501,0.501,0.77,1.173,0.751,1.891c0.042,0.662-0.231,1.387-0.751,1.907
			l-0.626,0.626c0.166,0.288,0.331,0.594,0.497,0.925c0.538,1.068,0.954,2.168,1.24,3.279h0.939c0.694,0,1.348,0.271,1.838,0.762
			c0.49,0.491,0.76,1.144,0.76,1.837v2.991c0,0.692-0.27,1.345-0.76,1.836s-1.144,0.763-1.838,0.763h-0.939
			c-0.286,1.109-0.701,2.209-1.24,3.278c-0.167,0.331-0.332,0.638-0.497,0.924l0.625,0.625c0.521,0.522,0.793,1.247,0.75,1.988
			c0.019,0.638-0.25,1.31-0.751,1.812l-2.027,2.025c-0.979,0.98-2.693,0.98-3.673-0.001l-0.665-0.664
			c-1.344,0.801-2.781,1.397-4.289,1.78v0.938c0,1.432-1.166,2.598-2.598,2.598h-2.866c-1.432,0-2.597-1.166-2.597-2.598V44.68
			c-1.516-0.383-2.953-0.978-4.289-1.771l-0.667,0.667c-0.981,0.981-2.694,0.981-3.673-0.001l-2.026-2.025
			c-0.502-0.502-0.769-1.174-0.752-1.893c-0.042-0.663,0.232-1.387,0.752-1.907l0.625-0.626c-0.166-0.288-0.33-0.594-0.496-0.924
			c-0.534-1.066-0.947-2.166-1.234-3.277H12.36c-0.694,0-1.346-0.271-1.836-0.762c-0.491-0.491-0.761-1.143-0.76-1.837V27.329z"/>
	</g>
</g>
<g>
</g>
<g>
</g>
<g>
</g>
<g>
</g>
<g>
</g>
<g>
</g>
<g>
</g>
<g>
</g>
<g>
</g>
<g>
</g>
<g>
</g>
<g>
</g>
<g>
</g>
<g>
</g>
<g>
</g>
</svg>
