<?xml version="1.0" encoding="iso-8859-1"?>
<!-- Generator: Adobe Illustrator 19.1.0, SVG Export Plug-In . SVG Version: 6.00 Build 0)  -->
<svg version="1.1" id="Capa_1" xmlns="http://www.w3.org/2000/svg" xmlns:xlink="http://www.w3.org/1999/xlink" x="0px" y="0px"
	 viewBox="0 0 483.8 483.8" style="enable-background:new 0 0 483.8 483.8;" xml:space="preserve">
<g>
	<g>
		<path d="M131.146,262c-0.8,0.2-0.9,1.2-0.3,1.6c2.7,1.5,4.9,2.7,7,3.9c0.5,0.3,1.2,0.1,1.5-0.4l0,0c0.2-0.4,0.2-0.9-0.2-1.3
			C137.146,263.8,135.546,261.1,131.146,262z"/>
		<path d="M250.446,101.7c-3.7-3.5-7.3-4.6-12-4.3c-4.8,0.3-9.7,0.2-14.5,0.3c-1.3,0-2.6,0.3-3.9,0.6c-3.1,0.8-6.1,2.3-9.2,2.4
			c-6.8,0.4-13.7,0.4-20.5,0c-4.7-0.2-7.4,1.8-10.1,6.5c7.3-1,13.5-0.6,17.6,5.5c0.3,0.5,1.5,0.6,2.3,0.6
			c7.6,0.9,10.9,4.5,10.9,12.2c0,3.2,0.3,6.4,0,9.5c-0.5,5,3,7.3,6.2,9.3c1.7,1.1,4.8,2,6.4-2c1-2.6,4-6.3,5.9-6.2
			c7.2,0.4,12.5-2.7,17.7-6.7c0.2-0.2,0.7,0,1-0.1c3.3-2.7,7.2-4.7,7.2-9.9c0-2,1.5-4.4,3-5.8c3-2.7,3.8-5.6,2.7-8.9
			C257.346,103.8,252.746,104,250.446,101.7z"/>
		<path d="M463.546,205.7h-30.5c-5-26.8-15.4-51.7-30.2-73.4l21.4-21.4c8-8,8-20.9,0-28.9l-22.3-22.3c-8-8-20.9-8-28.9,0l-21.3,21.2
			c-21.7-14.9-46.6-25.5-73.5-30.6V20.4c0-11.3-9.2-20.4-20.4-20.4h-31.6c-11.3,0-20.4,9.2-20.4,20.4v29.9
			c-26.9,5.1-51.8,15.7-73.5,30.6l-21.3-21.2c-8-8-20.9-8-28.9,0L59.846,82c-8,8-8,20.9,0,28.9l21.4,21.4
			c-14.8,21.7-25.2,46.6-30.2,73.4h-30.5c-11.3,0-20.4,9.2-20.4,20.4v31.6c0,11.3,9.2,20.4,20.4,20.4h30.7
			c5.1,26.6,15.7,51.3,30.4,72.8l-21.8,22c-8,8-8,20.9,0,28.9l22.3,22.3c8,8,20.9,8,28.9,0l22-22c21.5,14.6,46.2,25,72.7,30v31.3
			c0,11.3,9.2,20.4,20.4,20.4h31.6c11.3,0,20.4-9.2,20.4-20.4v-31.3c26.5-5,51.2-15.4,72.7-30l22,22c8,8,20.9,8,28.9,0l22.3-22.3
			c8-8,8-20.9,0-28.9l-21.9-21.9c14.8-21.6,25.3-46.2,30.4-72.8h30.7c11.3,0,20.4-9.2,20.4-20.4v-31.6
			C483.946,214.8,474.846,205.7,463.546,205.7z M242.046,397.3c-24.1,0-46.8-5.5-67.1-15.3c2.1-4.5,4.2-9.1,6.3-13.6
			c0.2-0.4,0.7-0.7,1-1.1c8.1-7,16.1-14,24.3-20.9c0.8-0.7,2.2-0.6,3.1-1.2c3.6-2.3,7.3-4.3,7.5-9.6c0.1-2,1.5-4.3,2.8-5.9
			c2.7-3.2,4.9-13,2.7-16.2c-1.7-2.5-4.6-5.7-7-5.7c-4.7-0.1-7.3-2.5-10.1-5.4c-3.8-4-7.7-7.9-11.7-11.7c-1.1-1.1-2.8-2.3-4.1-2.2
			c-3.9,0.4-6.5-1.4-8.5-4.2c-5.3-7.3-12.3-9.6-21.2-8.9c-9.3,0.7-13,3.7-12.7,13.1c0.2,4.3-0.8,7.8-4.3,10.5
			c-1,0.8-1.8,2.4-2.1,3.7c-2.6,10.4,6.6,17,8.7,25.9c0.1,0.6,0.9,1,1.4,1.4c1.9,1.9,3.6,3.9,5.7,5.6c2.5,2.1,3.4,4.6,3.3,7.8
			c-0.2,10.1,0,20.2-0.2,30.2c-43.7-27.4-72.8-76-72.8-131.4c0-4.7,0.3-9.4,0.7-14.1c0.2,0.1,0.3,0.3,0.6,0.4
			c7.8,5.5,7.3,15.7,14.1,21.4c0.7,0.6,0.3,2.5,0.4,3.9c0.3,3.5,5,8.5,8.3,8.8c2.7,0.2,4.5-0.3,4.3-3.7c-0.2-3.5,0.1-7-0.1-10.5
			c-0.3-3.5,0.6-6.3,3.5-8.3c3.2-2.2,6.3-4.5,9.7-6.5c2.2-1.2,4.6-2.6,7-2.7c7.3-0.4,10.6-3.3,11.6-10.6c0.2-1.5,1.2-3,2.1-4.3
			c3.9-4.8,8-9.4,11.9-14.2c6.6-8.4,15.2-15.8,24.4-21.3c4.9-2.9,8.6-6.7,12.3-10.5c3.2-3.3,2.6-8.7-1.2-11.1
			c-0.5-0.3-1-0.7-1.5-1.1c-2.5-2.3-6-3.4-9.4-3.2c-2.8,0.2-5.8-0.4-8.6,0.1c-2.6,0.4-5,1.9-7.4,3c-2.6,1.1-5.1,2.7-7.9,3.2
			c-2.9,0.5-6-0.2-9,0.2c-5.8,0.8-8.8-2.5-11.9-6.9c7-7,13.9-13.8,20.8-20.6c6.6-6.6,12.2-6.6,18.7,0c1.6,1.6,2.5,3.9,3.8,5.9
			c0.5-0.6,0.9-1.2,1.4-1.8c2-1.1,3.9-2.2,5.9-3.3c0.2-4.4-1.9-8.2-5-10.2c-1-0.7-2.2-1.2-3.4-1.4c-2.7-0.5-5.3-1.6-7.4-3.4
			c-4.4-3.9-7.7-4.1-11.9-0.2c-1.7,1.6-4,2.6-6.1,3.7c-2.4,1.3-5.1,2-7.2,3.5c-2.1,1.6-3.6,3.9-5.6,6.3c-1.8-1.6-2.8-2.5-3.8-3.4
			s-1.9-1.6-2.8-2.2c27.5-24.9,64-40,104-40c53.3,0,100.3,26.9,128.2,67.9c-2.4-1-5.6-0.8-11.2-0.3c-9.3,0.9-14-8-22.4-7.9
			c-0.6,0-1.2-1.1-1.8-1.7c-2.2-2.2-4.3-4.7-6.8-6.7c-4.9-4-11.1-4.7-16.9-6.1c-0.9-0.2-2.3,0.4-3.1,1.1c-6.2,4.8-6.5,12.4-8.4,19.1
			c-0.3,1,0.9,2.8,1.9,3.8c1.4,1.4,3.3,2.3,5.9,4.1c-4.2,3-6.5,5.7-9.4,6.6c-1.9,0.6-4,0.5-6.4,0.4c-1.6-0.1-2.6,1.8-1.5,3
			c2.3,2.7,3.7,5.4,3.5,9.2c-0.3,4.9-1.3,8.6-5.2,11.6c-2,1.5-3.4,3.7-5.4,5.2c-3,2.4-3.5,5.9-2.1,8.5c1.6,2.8,4.6,5.6,7.6,6.5
			c5.1,1.6,10.8-3.6,11.3-9c0.1-1.6,0.4-3.4,1.3-4.6c5.1-6.9,15.3-7.3,21.6-1.4c4.3,4.1,7.4,10.3,14.9,9.3c0.5-0.1,1.1,0.6,1.6,1.1
			c3.8,3.5,7.6,6.9,12.5,11.4c-3.2,1.4-4.8,2.6-6.5,2.8c-3.8,0.3-7.7-0.1-11.5,0.2c-2.8,0.2-5.6,1-8.4,1.6c-0.3,0.5-0.7,1-1,1.6
			c-2.9-3.2-5.7-6.5-8.8-9.6c-4.3-4.4-8.2-4.5-12.3-0.1c-2.4,2.6-4.9,3.5-8.4,3.4c-2.8-0.1-6.7-0.7-8.2,0.9
			c-4.8,5.2-13.1,8.2-12.6,17.4c0.1,1.1-1.4,2.6-2.5,3.5c-3.1,2.4-4,5.5-3.7,9.2c0.2,2.7,0.3,5.4,0,8c-0.4,4,0.8,7,3.9,9.7
			c1.4,1.2,1.8,3.6,2.5,5.6c0.4,1.2,0.2,2.7,0.8,3.8c4.3,7,16,8.5,21.5,2.4c3.8-4.2,8.5-4.1,12.3-2.6c3.9,1.5,7.4,5,6.7,10.6
			c-0.4,3.3-0.5,6.7,0,10c0.4,2.6,1.4,5.4,3.1,7.3c3.5,4.2,3.6,12.9,1.6,18c-1.6,4.3-2.6,10.6-0.6,14.1c1.8,3.1,4.2,5.9,5.2,9.4
			c0.6,2.2,3.3,3.1,5.1,1.7c0.7-0.6,1.5-1.1,2.2-1.6c3.8-2.5,7.7-4.6,11.5-7.1c0.5-0.3,0.3-1.6,0.7-2.3c1-2.3,1.8-4.8,3.3-6.8
			c3.9-5.1,3.7-12.4,9-16.8c0.8-0.7,0.2-3.2,0.2-4.9c0-4-1.4-8.9,0.4-11.8c3.1-5.1,5.2-10.7,8.3-15.6c2.5-4,4.8-7.2,4.2-12
			c-0.2-1.5-0.6-3.6,0.1-4.4c4-4.4,4.9-10.6,8-15.1c4.5-6.3,10-12.7,19-11.8c0.1,1.8,0.1,3.5,0.1,5.3
			C397.046,328,327.646,397.3,242.046,397.3z"/>
	</g>
</g>
<g>
</g>
<g>
</g>
<g>
</g>
<g>
</g>
<g>
</g>
<g>
</g>
<g>
</g>
<g>
</g>
<g>
</g>
<g>
</g>
<g>
</g>
<g>
</g>
<g>
</g>
<g>
</g>
<g>
</g>
</svg>
