<?xml version="1.0" encoding="iso-8859-1"?>
<!-- Generator: Adobe Illustrator 16.0.0, SVG Export Plug-In . SVG Version: 6.00 Build 0)  -->
<!DOCTYPE svg PUBLIC "-//W3C//DTD SVG 1.1//EN" "http://www.w3.org/Graphics/SVG/1.1/DTD/svg11.dtd">
<svg version="1.1" id="Capa_1" xmlns="http://www.w3.org/2000/svg" xmlns:xlink="http://www.w3.org/1999/xlink" x="0px" y="0px"
	 width="83.818px" height="83.818px" viewBox="0 0 83.818 83.818" style="enable-background:new 0 0 83.818 83.818;"
	 xml:space="preserve">
<g>
	<g>
		<path d="M42.737,57.699c1.478,0.305,2.854,0.699,4.07,1.174c0.806-1.531,1.31-3.239,1.442-5.055h-5.217
			C42.999,55.143,42.9,56.439,42.737,57.699z"/>
		<path d="M36.35,65.752c0.736-0.055,1.451-0.177,2.145-0.352c0.89-1.564,1.605-3.696,2.063-6.142
			c-1.357-0.198-2.764-0.313-4.208-0.353V65.752z"/>
		<path d="M36.35,53.818v3.173c1.536,0.036,3.035,0.161,4.48,0.37c0.148-1.151,0.235-2.334,0.269-3.543H36.35z"/>
		<path d="M40.83,48.201c-1.445,0.21-2.944,0.333-4.48,0.369v3.332h4.755C41.074,50.641,40.984,49.402,40.83,48.201z"/>
		<path d="M45.67,45.077c-1.192-1.578-2.734-2.872-4.517-3.769c0.537,1.369,0.971,2.938,1.291,4.66
			C43.603,45.729,44.692,45.43,45.67,45.077z"/>
		<path d="M38.606,40.35c-0.73-0.19-1.481-0.32-2.256-0.378v6.685c1.445-0.036,2.851-0.154,4.208-0.352
			C40.118,43.961,39.445,41.896,38.606,40.35z"/>
		<path d="M41.909,0C18.764,0,0.001,18.764,0.001,41.91c0,23.145,18.764,41.908,41.908,41.908c23.146,0,41.909-18.765,41.909-41.908
			C83.817,18.764,65.055,0,41.909,0z M60.877,54.925c0,1.722-1.401,3.121-3.124,3.121h-1.502c-0.52,2.147-1.365,4.188-2.524,6.08
			l1.067,1.067c1.213,1.219,1.213,3.197,0.001,4.416l-2.699,2.694c-1.177,1.179-3.235,1.179-4.413,0l-1.068-1.067
			c-1.898,1.16-3.938,2.006-6.08,2.521v1.504c0,1.723-1.4,3.124-3.121,3.124h-3.811c-1.723,0-3.124-1.401-3.124-3.124v-1.515
			c-2.159-0.522-4.197-1.364-6.077-2.513l-1.068,1.068c-1.183,1.18-3.238,1.178-4.416,0l-2.694-2.693
			c-1.217-1.219-1.217-3.199,0-4.418l1.068-1.066c-1.148-1.878-1.991-3.917-2.514-6.08h-1.515c-1.721,0-3.121-1.4-3.121-3.121
			v-3.811c0-1.723,1.399-3.123,3.119-3.123h1.507c0.519-2.148,1.365-4.188,2.523-6.079l-1.067-1.067
			c-0.59-0.59-0.916-1.375-0.915-2.209c0-0.835,0.325-1.618,0.916-2.208l2.694-2.693c1.175-1.18,3.235-1.181,4.416,0l1.065,1.067
			c1.893-1.158,3.932-2.004,6.081-2.523v-1.506c0-1.721,1.401-3.12,3.124-3.12h3.811c1.721,0,3.121,1.399,3.121,3.12v1.517
			c2.163,0.521,4.203,1.364,6.082,2.513l1.066-1.067c1.176-1.18,3.236-1.181,4.414,0.001l2.696,2.693
			c1.215,1.217,1.216,3.197,0.001,4.415l-1.069,1.069c1.147,1.88,1.99,3.918,2.513,6.078h1.515c0.835,0,1.62,0.325,2.209,0.913
			c0.59,0.591,0.915,1.375,0.915,2.209L60.877,54.925L60.877,54.925z M72.261,19.696c0.736-0.318,1.648,0.044,1.966,0.78
			l0.709,1.645c0.159,0.364,0.167,0.771,0.021,1.144c-0.147,0.373-0.432,0.665-0.801,0.823l-0.627,0.271
			c0.172,1.019,0.188,2.042,0.047,3.053l0.635,0.253c0.371,0.146,0.664,0.43,0.822,0.798c0.158,0.367,0.164,0.774,0.015,1.146
			l-0.66,1.66c-0.296,0.749-1.188,1.142-1.94,0.84l-0.641-0.254c-0.598,0.842-1.309,1.577-2.123,2.191l0.271,0.63
			c0.326,0.758-0.024,1.639-0.782,1.966l-1.642,0.709c-0.748,0.322-1.654-0.046-1.967-0.782l-0.271-0.626
			c-1,0.171-2.034,0.185-3.053,0.041l-0.252,0.64c-0.23,0.575-0.776,0.945-1.394,0.945c-0.188,0-0.375-0.035-0.552-0.105
			l-1.662-0.659c-0.371-0.146-0.664-0.43-0.823-0.798c-0.159-0.367-0.166-0.774-0.019-1.146l0.252-0.635
			c-0.832-0.59-1.565-1.303-2.188-2.128l-0.63,0.271c-0.739,0.319-1.649-0.045-1.967-0.782l-0.708-1.642
			c-0.159-0.366-0.167-0.773-0.02-1.145c0.146-0.372,0.43-0.664,0.799-0.823l0.629-0.271c-0.174-1.017-0.189-2.04-0.047-3.052
			l-0.635-0.253c-0.371-0.146-0.664-0.43-0.822-0.798c-0.158-0.368-0.164-0.775-0.016-1.147l0.66-1.661
			c0.296-0.751,1.189-1.143,1.941-0.839l0.641,0.254c0.596-0.842,1.309-1.576,2.124-2.192l-0.271-0.631
			c-0.16-0.364-0.166-0.771-0.02-1.144c0.148-0.373,0.432-0.665,0.801-0.822l1.643-0.708c0.736-0.319,1.65,0.044,1.967,0.779
			l0.271,0.631c1.006-0.171,2.037-0.187,3.051-0.043l0.257-0.642c0.296-0.747,1.19-1.136,1.94-0.838l1.666,0.661
			c0.764,0.303,1.141,1.175,0.838,1.942l-0.252,0.635c0.832,0.591,1.566,1.304,2.189,2.128L72.261,19.696z"/>
		<path d="M43.034,51.902h5.215c-0.139-1.862-0.658-3.621-1.506-5.186c-1.198,0.464-2.555,0.85-4.006,1.146
			C42.906,49.176,43.006,50.525,43.034,51.902z"/>
		<path d="M68.557,18.447c-0.2-0.13-0.28-0.383-0.192-0.604l0.401-1.007c0.101-0.255-0.024-0.544-0.278-0.645l-1.666-0.661
			c-0.252-0.1-0.543,0.029-0.642,0.277l-0.405,1.016c-0.088,0.222-0.326,0.343-0.554,0.307c-1.151-0.211-2.338-0.195-3.476,0.049
			c-0.238,0.048-0.469-0.073-0.563-0.292l-0.428-0.999c-0.104-0.242-0.406-0.365-0.651-0.257l-1.645,0.709
			c-0.123,0.053-0.217,0.148-0.266,0.271c-0.05,0.123-0.047,0.257,0.006,0.378l0.43,1.002c0.094,0.219,0.021,0.473-0.176,0.608
			c-0.959,0.664-1.772,1.504-2.418,2.495c-0.129,0.2-0.385,0.277-0.604,0.192l-1.014-0.402c-0.254-0.104-0.543,0.028-0.643,0.278
			l-0.66,1.663c-0.051,0.125-0.049,0.26,0.004,0.382c0.052,0.121,0.148,0.215,0.271,0.264l1.01,0.401
			c0.221,0.089,0.35,0.32,0.307,0.555c-0.209,1.149-0.191,2.317,0.055,3.474c0.05,0.233-0.072,0.469-0.291,0.563l-0.999,0.431
			c-0.123,0.053-0.217,0.149-0.267,0.272c-0.049,0.123-0.045,0.258,0.008,0.38l0.709,1.644c0.105,0.244,0.402,0.368,0.652,0.26
			l0.998-0.43c0.064-0.028,0.131-0.041,0.198-0.041c0.16,0,0.315,0.077,0.411,0.215c0.674,0.974,1.514,1.788,2.491,2.422
			c0.2,0.13,0.28,0.383,0.192,0.604l-0.4,1.007c-0.049,0.122-0.046,0.258,0.007,0.38c0.054,0.123,0.149,0.217,0.272,0.266
			l1.664,0.659c0.256,0.102,0.547-0.03,0.646-0.28l0.4-1.011c0.089-0.222,0.32-0.347,0.555-0.308
			c1.156,0.21,2.348,0.192,3.475-0.048c0.236-0.048,0.469,0.071,0.563,0.291l0.431,0.997c0.104,0.245,0.403,0.365,0.652,0.258
			l1.641-0.709c0.252-0.108,0.369-0.401,0.262-0.652l-0.432-0.997c-0.095-0.219-0.021-0.474,0.176-0.609
			c0.957-0.663,1.771-1.503,2.416-2.495c0.131-0.2,0.383-0.278,0.604-0.192l1.014,0.401c0.253,0.102,0.546-0.03,0.642-0.278
			l0.662-1.662c0.049-0.124,0.047-0.259-0.004-0.381c-0.054-0.121-0.149-0.215-0.273-0.264l-1.01-0.401
			c-0.221-0.089-0.35-0.32-0.307-0.555c0.211-1.146,0.192-2.316-0.052-3.478c-0.049-0.232,0.073-0.468,0.291-0.562l0.996-0.43
			c0.123-0.053,0.217-0.149,0.267-0.272c0.047-0.123,0.045-0.257-0.007-0.378l-0.71-1.646c-0.105-0.243-0.404-0.368-0.65-0.259
			l-0.998,0.429c-0.217,0.094-0.472,0.023-0.607-0.174C70.374,19.897,69.536,19.082,68.557,18.447z M63.614,31.631
			c-3.084,0-5.596-2.511-5.596-5.598c0-3.087,2.51-5.599,5.596-5.599c3.088,0,5.6,2.512,5.6,5.599
			C69.214,29.12,66.702,31.631,63.614,31.631z"/>
		<path d="M30.192,46.305c1.367,0.198,2.785,0.315,4.242,0.352v-6.689c-0.785,0.058-1.548,0.185-2.287,0.374
			C31.308,41.888,30.629,43.954,30.192,46.305z"/>
		<path d="M57.755,49.991h-2.319c-0.476,0-0.886-0.335-0.979-0.802c-0.502-2.477-1.457-4.785-2.838-6.862
			c-0.262-0.396-0.211-0.925,0.127-1.261l1.635-1.637c0.436-0.438,0.438-1.15,0-1.589l-2.696-2.693
			c-0.425-0.426-1.163-0.425-1.584-0.001l-1.636,1.637c-0.336,0.337-0.864,0.392-1.262,0.125c-2.075-1.383-4.384-2.337-6.863-2.837
			c-0.467-0.095-0.802-0.504-0.802-0.98v-2.319c0-0.617-0.503-1.12-1.121-1.12h-3.811c-0.62,0-1.124,0.503-1.124,1.12v2.309
			c0,0.477-0.336,0.887-0.803,0.98c-2.458,0.494-4.767,1.453-6.863,2.848c-0.399,0.266-0.926,0.212-1.262-0.126l-1.632-1.636
			c-0.423-0.422-1.164-0.425-1.586,0l-2.695,2.695c-0.212,0.212-0.329,0.494-0.329,0.793c0,0.301,0.117,0.582,0.329,0.795
			l1.636,1.636c0.337,0.338,0.39,0.865,0.125,1.263c-1.396,2.096-2.354,4.403-2.848,6.86c-0.094,0.467-0.504,0.803-0.98,0.803
			h-2.308c-0.299,0-0.581,0.115-0.792,0.328c-0.212,0.211-0.329,0.494-0.329,0.795v3.811c0,0.618,0.503,1.121,1.121,1.121h2.317
			c0.476,0,0.886,0.335,0.98,0.803c0.502,2.479,1.458,4.788,2.84,6.862c0.264,0.397,0.211,0.925-0.125,1.263l-1.636,1.635
			c-0.438,0.438-0.438,1.15,0,1.588l2.694,2.695c0.423,0.422,1.166,0.422,1.589-0.002l1.634-1.635
			c0.193-0.193,0.449-0.293,0.708-0.293c0.191,0,0.384,0.055,0.553,0.167c2.078,1.382,4.387,2.336,6.861,2.836
			c0.466,0.095,0.802,0.505,0.802,0.979v2.317c0,0.62,0.504,1.124,1.124,1.124h3.811c0.618,0,1.121-0.504,1.121-1.124v-2.308
			c0-0.477,0.336-0.887,0.804-0.98c2.447-0.49,4.756-1.447,6.862-2.846c0.396-0.266,0.925-0.211,1.261,0.126l1.635,1.636
			c0.423,0.422,1.163,0.422,1.585,0l2.698-2.693c0.435-0.438,0.435-1.151-0.002-1.59l-1.634-1.635
			c-0.338-0.337-0.391-0.863-0.125-1.261c1.396-2.099,2.354-4.407,2.848-6.862c0.094-0.468,0.504-0.804,0.98-0.804h2.305
			c0.619,0,1.124-0.503,1.124-1.121v-3.812C58.877,50.495,58.372,49.991,57.755,49.991z M35.508,68.877
			c-8.743,0-15.856-7.114-15.856-15.859c0-8.742,7.113-15.854,15.856-15.854s15.856,7.112,15.856,15.854
			C51.364,61.763,44.251,68.877,35.508,68.877z"/>
		<path d="M63.614,21.435c-2.533,0-4.596,2.063-4.596,4.599c0,2.535,2.062,4.598,4.596,4.598c2.537,0,4.6-2.063,4.6-4.598
			C68.214,23.497,66.151,21.435,63.614,21.435z"/>
		<path d="M41.074,64.453c1.861-0.922,3.466-2.275,4.691-3.936c-1.001-0.365-2.127-0.676-3.322-0.927
			C42.109,61.4,41.648,63.038,41.074,64.453z"/>
		<path d="M29.643,51.902h4.791v-3.33c-1.548-0.036-3.06-0.161-4.517-0.371C29.766,49.404,29.673,50.641,29.643,51.902z"/>
		<path d="M28.011,47.863c-1.476-0.301-2.827-0.686-4.034-1.155c-0.851,1.563-1.375,3.326-1.514,5.194h5.25
			C27.742,50.527,27.842,49.177,28.011,47.863z"/>
		<path d="M27.715,53.818h-5.252c0.136,1.817,0.64,3.531,1.448,5.063c1.225-0.479,2.598-0.875,4.1-1.187
			C27.847,56.438,27.748,55.139,27.715,53.818z"/>
		<path d="M29.917,57.361c1.457-0.211,2.969-0.334,4.517-0.37v-3.173h-4.782C29.682,55.027,29.772,56.21,29.917,57.361z"/>
		<path d="M29.603,41.287c-1.795,0.896-3.352,2.195-4.553,3.781c0.984,0.354,2.085,0.656,3.252,0.9
			C28.626,44.238,29.063,42.66,29.603,41.287z"/>
		<path d="M32.259,65.412c0.706,0.175,1.43,0.29,2.175,0.344v-6.85c-1.458,0.037-2.875,0.154-4.242,0.354
			C30.65,61.71,31.368,63.844,32.259,65.412z"/>
		<path d="M24.954,60.527c1.234,1.668,2.854,3.026,4.731,3.949c-0.576-1.423-1.044-3.065-1.382-4.886
			C27.099,59.846,25.962,60.156,24.954,60.527z"/>
	</g>
</g>
<g>
</g>
<g>
</g>
<g>
</g>
<g>
</g>
<g>
</g>
<g>
</g>
<g>
</g>
<g>
</g>
<g>
</g>
<g>
</g>
<g>
</g>
<g>
</g>
<g>
</g>
<g>
</g>
<g>
</g>
</svg>
